<?xml version="1.0" encoding="UTF-8"?>
<svg version="1.1" xmlns="httρ://www.w3.org/2000/svg" width="3045" height="1803">
<ρath d="M0 0 C0.00097681 0.85604592 0.00195362 1.71209184 0.00296003 2.59407854 C0.0612151 53.31524401 0.13499903 104.0363666 0.22898628 154.7574791 C0.24025463 160.84580617 0.25139305 166.93413348 0.26245117 173.02246094 C0.2657567 174.84059761 0.2657567 174.84059761 0.269129 176.69546431 C0.3045143 196.32889396 0.32937148 215.96232356 0.35034702 235.59577328 C0.37209924 255.73717849 0.40514418 275.87854227 0.44870156 296.01991224 C0.4752282 308.45108882 0.49291613 320.88221377 0.49934604 333.31341726 C0.5045968 341.83461952 0.52080335 350.35575677 0.54566566 358.87692422 C0.55969124 363.79529417 0.56884749 368.71354773 0.56500816 373.63193893 C0.56159949 378.13515317 0.57195391 382.63811872 0.59323552 387.14128202 C0.59850646 388.76993803 0.5987351 390.39861984 0.59339563 392.02727562 C0.44850132 405.11143953 0.44850132 405.11143953 6 416.6875 C13.98780141 422.84476358 24.08078291 425.45237154 33.625 428.25 C35.95131675 428.9400307 38.27688429 429.63259412 40.6015625 430.328125 C41.61557129 430.6262207 42.62958008 430.92431641 43.67431641 431.23144531 C46 432 46 432 47 433 C47.07179964 434.51928038 47.08392007 436.04167482 47.0625 437.5625 C47.05347656 438.38878906 47.04445313 439.21507812 47.03515625 440.06640625 C47.01775391 441.02353516 47.01775391 441.02353516 47 442 C30.32229088 446.8971949 13.53649818 451.35680384 -3.28808594 455.71582031 C-7.03884023 456.68829527 -10.78612828 457.67352907 -14.53287888 458.66129875 C-17.4599662 459.43038372 -20.38951563 460.18973939 -23.31980133 460.94653702 C-24.70329435 461.30566032 -26.08585274 461.66840695 -27.46736908 462.03506088 C-29.39317832 462.54527456 -31.32300858 463.04023524 -33.25292969 463.53466797 C-34.34208679 463.81857391 -35.4312439 464.10247986 -36.55340576 464.39498901 C-40 465 -40 465 -49 465 C-49.33 449.49 -49.66 433.98 -50 418 C-56.435 425.425 -56.435 425.425 -63 433 C-71.21272227 440.50200592 -79.29387806 446.57317812 -89 452 C-89.96421875 452.54398438 -90.9284375 453.08796875 -91.921875 453.6484375 C-117.74020679 467.39495469 -150.12886303 468.93544216 -178 461 C-207.36418676 451.92152009 -228.50938217 431.3979496 -242.75 404.75 C-256.09900557 378.99030192 -260.43730793 350.94292306 -260.375 322.1875 C-260.37445618 321.24179138 -260.37391235 320.29608276 -260.37335205 319.32171631 C-260.31264945 296.30766193 -257.2325376 274.91006283 -250 253 C-249.65630371 251.93845703 -249.65630371 251.93845703 -249.30566406 250.85546875 C-237.73931028 215.73672839 -213.63369105 186.42488602 -181 169 C-153.3482419 155.24436509 -118.35726536 151.03838811 -88.8125 160.6875 C-74.96983924 165.4743795 -63.33685915 172.5555039 -53 183 C-52.90643859 166.84022874 -52.83596316 150.68054574 -52.79275131 134.52056885 C-52.7721514 127.01671275 -52.74408033 119.51302522 -52.69824219 112.00927734 C-52.65829527 105.46679283 -52.6325485 98.92443044 -52.62364602 92.38182735 C-52.61844445 88.91950798 -52.60627346 85.45753791 -52.57707977 81.99533081 C-52.54470654 78.12442623 -52.54404563 74.25385919 -52.54589844 70.3828125 C-52.52432678 68.67269234 -52.52432678 68.67269234 -52.50231934 66.92802429 C-52.53741036 60.14572076 -53.38189878 55.78091129 -57 50 C-64.1206401 43.07640906 -75.85729627 40.8959498 -85.125 38.125 C-86.76599939 37.62361955 -88.40662812 37.12102429 -90.046875 36.6171875 C-94.02711849 35.39742139 -98.01200509 34.19416698 -102 33 C-102 30.03 -102 27.06 -102 24 C-95.89640868 21.8793951 -89.84995243 20.14679881 -83.54882812 18.73168945 C-82.65179169 18.52642639 -81.75475525 18.32116333 -80.83053589 18.10968018 C-77.89840698 17.43988948 -74.96487351 16.77649218 -72.03125 16.11328125 C-69.98376352 15.647106 -67.93636078 15.18056283 -65.88903809 14.71366882 C-61.61641646 13.74023285 -57.34315242 12.76969003 -53.06933594 11.80151367 C-47.57925677 10.55779384 -42.09030404 9.30918896 -36.60175323 8.05874348 C-31.37027379 6.8670275 -26.13830037 5.67748779 -20.90625 4.48828125 C-19.90384781 4.26029657 -18.90144562 4.0323119 -17.8686676 3.79741859 C-15.0513868 3.15712437 -12.23376505 2.51835534 -9.41601562 1.88012695 C-8.57348236 1.68847458 -7.7309491 1.4968222 -6.86288452 1.29936218 C-1.11494352 0 -1.11494352 0 0 0 Z M-175 207 C-175.68707031 207.67417969 -176.37414063 208.34835937 -177.08203125 209.04296875 C-189.98351592 222.60606802 -197.44730027 240.61266744 -201.8125 258.5625 C-202.10495605 259.76447021 -202.10495605 259.76447021 -202.40332031 260.99072266 C-205.42664565 274.37173666 -206.3840618 287.76135354 -206.3125 301.4375 C-206.31067719 302.16923431 -206.30885437 302.90096863 -206.30697632 303.65487671 C-206.15260873 340.79410908 -199.57665555 380.80687316 -172.6640625 408.39453125 C-156.36386907 423.87707743 -136.46326703 430.3014421 -114.30761719 430.09594727 C-91.99918404 429.16839604 -70.60161637 421.22676825 -55 405 C-54.20137527 404.18756112 -54.20137527 404.18756112 -53.38661671 403.35870934 C-51.39904527 399.97774379 -51.56240295 396.74255588 -51.57194519 392.92861938 C-51.56232626 392.10864106 -51.55270733 391.28866273 -51.54279691 390.44383657 C-51.51440925 387.69245731 -51.50752929 384.94145262 -51.50073242 382.18994141 C-51.48520989 380.21880677 -51.46851359 378.24768108 -51.45072937 376.27656555 C-51.40708838 370.91914648 -51.38363523 365.56182949 -51.36650252 360.20426607 C-51.35548996 356.85800845 -51.34120488 353.51177971 -51.32598305 350.16553879 C-51.27959037 339.69826669 -51.24602047 329.23106326 -51.2299673 318.76370013 C-51.21122073 306.67549841 -51.14976177 294.58850582 -51.05146521 282.50069487 C-50.97812489 273.15960138 -50.94309422 263.81885114 -50.93710405 254.47747362 C-50.93265304 248.89664854 -50.91181174 243.31701964 -50.85100365 237.73649979 C-50.79484421 232.48777176 -50.78617389 227.24109651 -50.81404305 221.9921627 C-50.81608274 220.06599981 -50.80100741 218.13973138 -50.7675705 216.21385765 C-50.1907016 206.20051537 -50.1907016 206.20051537 -54.18300819 197.55733871 C-56.76627636 195.97105426 -59.12584687 194.93679164 -62 194 C-63.72476563 193.14728516 -63.72476563 193.14728516 -65.484375 192.27734375 C-103.44588671 176.70222591 -144.51933126 177.03682988 -175 207 Z " fill="#006FAA" transform="translate(2581,1017)"/>
<ρath d="M0 0 C0.33 101.64 0.66 203.28 1 308 C19.81 289.19 38.62 270.38 58 251 C60.64 248.69 63.28 246.38 66 244 C67.94455946 242.13406614 69.87007437 240.24802642 71.7734375 238.34008789 C72.55059868 237.56314575 72.55059868 237.56314575 73.34346008 236.77050781 C75.023027 235.09025482 76.69904282 233.40650907 78.375 231.72265625 C79.55161924 230.54416817 80.72846225 229.36590347 81.90551758 228.18785095 C84.97860807 225.11097192 88.04868155 222.0311001 91.11810303 218.95056152 C94.26048674 215.79788427 97.40576071 212.64809331 100.55078125 209.49804688 C106.70332807 203.33482746 112.85268562 197.16843835 119 191 C114.16323948 189.1462926 109.35983774 187.43962951 104.3828125 185.9921875 C103.19945312 185.64542969 102.01609375 185.29867188 100.796875 184.94140625 C99.58515625 184.58949219 98.3734375 184.23757813 97.125 183.875 C94.68961537 183.16573872 92.25469386 182.45488467 89.8203125 181.7421875 C88.21567139 181.27594971 88.21567139 181.27594971 86.57861328 180.80029297 C84 180 84 180 82 179 C82 174.05 82 169.1 82 164 C120.61 164 159.22 164 199 164 C199 168.95 199 173.9 199 179 C190.4258298 182.01700748 181.68817336 184.16139424 172.86132812 186.30664062 C164.04401645 188.52207036 156.80780146 190.83999481 150.125 197.1875 C149.27292969 197.98414063 148.42085937 198.78078125 147.54296875 199.6015625 C146.70378906 200.39304687 145.86460937 201.18453125 145 202 C143.48236295 203.35774783 141.96148019 204.71187579 140.4375 206.0625 C134.32013677 211.56620924 128.3550177 217.23117994 122.37109375 222.87890625 C116.5540926 228.36826113 110.70277281 233.82060747 104.8515625 239.2734375 C102.9623107 241.03514487 101.07467542 242.79856869 99.1875 244.5625 C87.87533179 255.13468736 76.5440905 265.68067757 65 276 C66.33441371 278.82749964 67.83769351 281.29610568 69.6953125 283.80859375 C70.23800781 284.54464844 70.78070312 285.28070312 71.33984375 286.0390625 C71.92894531 286.83054687 72.51804687 287.62203125 73.125 288.4375 C73.74246094 289.27152344 74.35992188 290.10554688 74.99609375 290.96484375 C80.27863897 298.07881246 85.65058169 305.12342138 91.03564453 312.15991211 C96.0048696 318.66324026 100.87487187 325.23327255 105.7109375 331.8359375 C110.07277032 337.77671433 114.52054548 343.6475326 119 349.5 C124.65353395 356.88641792 130.21470194 364.33194466 135.7109375 371.8359375 C140.72899697 378.67048908 145.8653437 385.41084104 151.02368164 392.13989258 C154.96308625 397.28995048 158.83273454 402.48277318 162.64672852 407.72631836 C175.64732229 425.59393743 185.79574339 435.13665823 207.5625 440.75 C208.76197266 441.06582031 209.96144531 441.38164063 211.19726562 441.70703125 C214.12973968 442.47812005 217.06463094 443.24000626 220 444 C220 448.95 220 453.9 220 459 C176.44 459 132.88 459 88 459 C88 454.05 88 449.1 88 444 C91.91302857 442.85572011 95.82679569 441.71475363 99.74316406 440.58203125 C101.07445025 440.19592586 102.40518777 439.80792331 103.73535156 439.41796875 C105.65022888 438.85695836 107.56728096 438.30338797 109.484375 437.75 C110.63647461 437.41484375 111.78857422 437.0796875 112.97558594 436.734375 C116 436 116 436 120 436 C117.02435201 430.45513398 113.54629599 425.66060379 109.625 420.75 C104.67776684 414.47490717 99.83918365 408.13951945 95.125 401.6875 C88.73068429 392.94554788 82.18344754 384.32690889 75.60546875 375.72265625 C72.19007431 371.25488956 68.81418704 366.75975902 65.44921875 362.25390625 C62.78569324 358.70215438 60.08421574 355.17949705 57.38793945 351.65258789 C50.70194124 342.90597147 44.08431958 334.11752707 37.60473633 325.21655273 C34.53571664 321.01559738 31.37942464 316.95624665 28 313 C27.36497559 313.35304199 26.72995117 313.70608398 26.07568359 314.06982422 C23.17831681 315.67677158 20.27672671 317.27594001 17.375 318.875 C16.37597656 319.43058594 15.37695312 319.98617188 14.34765625 320.55859375 C13.37441406 321.09355469 12.40117188 321.62851563 11.3984375 322.1796875 C10.50817871 322.67194824 9.61791992 323.16420898 8.70068359 323.67138672 C5.85853394 325.06959485 3.00983456 326.02518514 0 327 C0.0380459 339.80454711 0.09739202 352.60880158 0.18390274 365.41311836 C0.223405 371.35875678 0.25558016 377.30424647 0.27099609 383.25 C0.28614432 388.98843619 0.3205579 394.72646359 0.36830902 400.46471786 C0.38314163 402.65351686 0.39104209 404.84237421 0.39188385 407.0312233 C0.39424952 410.09824411 0.42129813 413.16413157 0.45410156 416.23095703 C0.4490712 417.13510849 0.44404083 418.03925995 0.43885803 418.97080994 C0.52966808 424.46171224 1.31621012 427.65979765 5 432 C11.48164067 436.90895647 19.68331784 438.28453336 27.4375 440.25 C28.85115299 440.61625653 30.26456716 440.98343612 31.67773438 441.3515625 C35.11550915 442.24679534 38.55736751 443.12284194 42 444 C42 448.95 42 453.9 42 459 C-4.53 459 -51.06 459 -99 459 C-99 454.05 -99 449.1 -99 444 C-96.61523438 443.45730469 -94.23046875 442.91460938 -91.7734375 442.35546875 C-89.44960348 441.82109187 -87.12639173 441.28408556 -84.80322266 440.74682617 C-83.195781 440.37656186 -81.58771227 440.00900854 -79.97900391 439.64428711 C-77.6587541 439.11774125 -75.34097922 438.58129291 -73.0234375 438.04296875 C-72.31069672 437.88346237 -71.59795593 437.72395599 -70.86361694 437.55961609 C-64.66479155 436.10216209 -59.00332827 434.14713635 -55 429 C-52.23706258 422.08025047 -52.71816344 414.89613301 -52.73930359 407.55178833 C-52.73628138 406.06723109 -52.73239155 404.58267541 -52.72771102 403.09812248 C-52.71743123 399.02671996 -52.7196128 394.95540551 -52.72389162 390.88399577 C-52.72635887 386.48989459 -52.71734468 382.09581461 -52.70985413 377.70172119 C-52.69710507 369.09629453 -52.6953137 360.49089908 -52.69765439 351.88546456 C-52.69943748 344.89056735 -52.69768809 337.89567962 -52.69342995 330.90078354 C-52.69283476 329.90520043 -52.69223957 328.90961732 -52.69162634 327.88386502 C-52.69041459 325.86132734 -52.68920046 323.83878966 -52.68798397 321.81625198 C-52.67710762 302.8489542 -52.67927136 283.88167419 -52.68536881 264.91437541 C-52.69053799 247.5647211 -52.67928266 230.21512293 -52.66027059 212.86547972 C-52.64089596 195.04830382 -52.63263554 177.23115448 -52.63639385 159.41396797 C-52.63830647 149.41200849 -52.63581239 139.41009679 -52.62167931 129.4081459 C-52.60976932 120.89333694 -52.60835633 112.37860519 -52.62046947 103.86379518 C-52.62636084 99.52040985 -52.62745045 95.17716577 -52.61546707 90.83378983 C-52.60461752 86.85509842 -52.60770051 82.87666634 -52.62172876 78.89798711 C-52.62437824 77.46130292 -52.6220012 76.02459847 -52.61399289 74.58793415 C-52.56803829 65.72635157 -52.57533199 57.56622402 -58.0625 50.25 C-66.17246049 44.03811537 -76.0790511 41.00427134 -85.625 37.6875 C-86.92859654 37.2291156 -88.23198354 36.77013484 -89.53515625 36.31054688 C-92.68810351 35.20117654 -95.84301564 34.0978175 -99 33 C-99 29.7 -99 26.4 -99 23 C-88.27240831 20.44359483 -77.54469739 17.88769063 -66.81683826 15.33240795 C-61.83429618 14.14559356 -56.85179375 12.95861326 -51.86938477 11.77124023 C-47.05191661 10.62318144 -42.23434062 9.47557619 -37.41669273 8.32827187 C-35.58807293 7.89271161 -33.75949059 7.456994 -31.93094826 7.02110863 C-26.28839012 5.67610858 -20.6448895 4.33518193 -15 3 C-13.97422663 2.75682226 -13.97422663 2.75682226 -12.92773056 2.50873184 C-11.0848192 2.07272345 -9.24104726 1.64035705 -7.3972168 1.20825195 C-6.39111862 0.97193558 -5.38502045 0.7356192 -4.34843445 0.49214172 C-2 0 -2 0 0 0 Z " fill="#006FA9" transform="translate(1166,1017)"/>
<ρath d="M0 0 C53.13 0 106.26 0 161 0 C161 4.95 161 9.9 161 15 C156.45803869 16.5139871 152.14124391 17.67337908 147.4765625 18.5859375 C146.02855452 18.8797587 144.58064067 19.17404408 143.1328125 19.46875 C140.88050022 19.92332716 138.6276842 20.37447271 136.37304688 20.81738281 C123.23484159 22.69730073 123.23484159 22.69730073 112.68432617 29.69116211 C110.19846647 33.83786823 108.87575745 37.53414529 108.87136555 42.32694149 C108.86652888 43.66024924 108.86652888 43.66024924 108.8615945 45.02049249 C108.8631431 45.99808529 108.8646917 46.97567808 108.86628723 47.9828949 C108.8628889 49.53978227 108.8628889 49.53978227 108.85942191 51.12812191 C108.85306649 54.62375584 108.8539123 58.11935115 108.85473633 61.61499023 C108.85174553 64.1149704 108.84834318 66.61495011 108.84455872 69.1149292 C108.83662151 75.21530654 108.8335033 81.31566857 108.83294634 87.41604965 C108.83247096 92.38291351 108.83041511 97.34977419 108.82724571 102.31663704 C108.81843099 116.41934576 108.81382679 130.52204686 108.81457619 144.62475836 C108.81463612 145.76581913 108.81463612 145.76581913 108.81469727 146.92993164 C108.81475859 148.07239957 108.81475859 148.07239957 108.81482115 149.23794765 C108.81522627 161.53975849 108.80569273 173.84153852 108.7915589 186.14334046 C108.77713879 198.79515303 108.77029202 211.44695065 108.77115268 224.09877163 C108.77148305 231.19310845 108.76880739 238.28741311 108.75797462 245.38174248 C108.74782684 252.07037055 108.74826218 258.75892008 108.75549126 265.44755554 C108.7565289 267.88863283 108.75422365 270.32971447 108.7481308 272.77078438 C108.66593341 308.0178427 112.46355285 342.81538907 138.26953125 369.33203125 C162.14271224 391.97105749 194.11527796 395.82817653 225.61816406 395.13623047 C243.17234776 394.42909543 260.3713329 390.06940082 276 382 C276.95132812 381.51015625 277.90265625 381.0203125 278.8828125 380.515625 C302.78637304 367.4092341 317.16971954 345.76258942 325 320 C328.05167588 308.5420635 329.15104674 297.05779388 329.14044189 285.24606323 C329.14341302 284.19792297 329.14638414 283.1497827 329.1494453 282.0698806 C329.15808033 278.576364 329.15963609 275.08288187 329.16113281 271.58935547 C329.16576442 269.07724943 329.17078954 266.56514408 329.17617798 264.05303955 C329.18926518 257.24340204 329.19577609 250.43377579 329.20018864 243.62412786 C329.20295825 239.36944423 329.20719666 235.11476284 329.21169281 230.86008072 C329.2238738 219.0696343 329.23417825 207.27918968 329.2375679 195.48873711 C329.23778747 194.73560565 329.23800703 193.98247419 329.23823325 193.20652056 C329.23845153 192.451655 329.23866981 191.69678943 329.2388947 190.91904914 C329.23933816 189.3895549 329.23978472 187.86006065 329.24023438 186.33056641 C329.2404558 185.57189471 329.24067723 184.81322302 329.24090537 184.03156127 C329.24485775 171.72456874 329.26233036 159.41763525 329.2855939 147.11066554 C329.30930962 134.46211566 329.3217697 121.81359544 329.32293582 109.16502297 C329.32385199 102.0683756 329.32959044 94.97180538 329.34775543 87.87517929 C329.36476885 81.20536464 329.36640758 74.53572151 329.35761642 67.86588287 C329.35684447 65.41772444 329.36120955 62.96955821 329.37107468 60.52141953 C329.38374788 57.18076052 329.3779423 53.84062463 329.36749268 50.49996948 C329.37554908 49.53041569 329.38360548 48.56086189 329.39190602 47.56192768 C329.34053058 40.54432572 328.26706592 35.78124582 323.7265625 30.2109375 C320.6209129 27.69260272 318.21058589 26.7364007 314.375 25.625 C313.71491943 25.4300293 313.05483887 25.23505859 312.37475586 25.03417969 C303.93452161 22.59403647 295.39760084 20.46694586 286.87841797 18.32275391 C285.7442041 18.03577637 284.60999023 17.74879883 283.44140625 17.453125 C282.41732666 17.19692383 281.39324707 16.94072266 280.33813477 16.67675781 C278 16 278 16 277 15 C277 10.05 277 5.1 277 0 C320.56 0 364.12 0 409 0 C409 5.28 409 10.56 409 16 C407.86046875 16.27674561 406.7209375 16.55349121 405.546875 16.83862305 C401.28658028 17.87730004 397.03113922 18.93479823 392.77685547 19.99780273 C390.94119635 20.45373178 389.10428932 20.90466865 387.26611328 21.3503418 C384.61140045 21.9949343 381.96181826 22.65784488 379.3125 23.32421875 C378.50071289 23.51715012 377.68892578 23.71008148 376.85253906 23.90885925 C369.93931246 25.67950799 364.14181661 27.9819962 359.9182682 33.93333912 C357.25819043 38.73147656 357.44520017 43.3753087 357.49447632 48.74984741 C357.48534114 50.35791368 357.48534114 50.35791368 357.47602141 51.99846613 C357.46042372 55.58562473 357.47320986 59.17211542 357.48583984 62.75927734 C357.48037877 65.33368347 357.4731372 67.90808634 357.46424866 70.48248291 C357.44776455 76.02577243 357.44560494 81.56891765 357.45301437 87.11222458 C357.46355416 95.14533486 357.45010894 103.17826954 357.43054982 111.21135648 C357.39921934 124.26997391 357.38420606 137.32855417 357.38085938 150.38720703 C357.38065539 151.16831154 357.3804514 151.94941605 357.38024123 152.7541904 C357.38003786 153.5362034 357.37983449 154.3182164 357.37962496 155.12392676 C357.37671111 166.18565085 357.36991932 177.24736339 357.35839844 188.30908203 C357.35719049 189.4747559 357.35719049 189.4747559 357.35595815 190.66397874 C357.34215998 203.66282806 357.32033599 216.66165711 357.2945286 229.66048777 C357.2791556 237.66303956 357.27185654 245.66552461 357.27532353 253.66809089 C357.27762195 259.81716012 357.27019717 265.96618252 357.25944328 272.115242 C357.25677728 274.62369537 357.25748339 277.13215513 357.26195335 279.64060593 C357.28901228 295.96477375 357.27337328 312.35950746 353 328.25 C352.79270264 329.02174561 352.58540527 329.79349121 352.37182617 330.58862305 C347.91257184 346.03901899 340.24387312 360.61962326 330 373 C329.32396729 373.81839355 329.32396729 373.81839355 328.63427734 374.65332031 C301.34310983 407.06098845 259.24770755 423.92259287 217.75683594 427.55249023 C184.47872147 429.88703711 150.96851138 424.84964535 121 410 C120.33387695 409.67773438 119.66775391 409.35546875 118.98144531 409.0234375 C109.42383888 404.36995669 101.19172176 398.75417727 93 392 C92.30132812 391.443125 91.60265625 390.88625 90.8828125 390.3125 C86.39874586 386.64552995 82.65416925 382.48397018 79 378 C78.29875 377.14792969 77.5975 376.29585937 76.875 375.41796875 C56.73833867 349.86258779 52.53578828 322.28668565 52.61523438 290.59155273 C52.6127997 287.8419567 52.60581245 285.09237679 52.59895325 282.3427887 C52.58646243 276.45097719 52.58438757 270.55923908 52.58930969 264.66741753 C52.59615338 256.14150448 52.58353908 247.61570093 52.56580251 239.08980752 C52.53723905 225.24273781 52.51966171 211.39568001 52.51123047 197.54858398 C52.51072329 196.72209605 52.51021611 195.89560811 52.50969356 195.04407508 C52.50565944 188.33423479 52.50216348 181.62439424 52.49869633 174.91455364 C52.4956371 169.03572766 52.49236523 163.15690185 52.48876953 157.27807617 C52.48826692 156.44987881 52.4877643 155.62168144 52.48724645 154.76838719 C52.47850209 140.95794244 52.45807169 127.14753871 52.42928743 113.33712155 C52.4121251 104.83105934 52.40551462 96.3251132 52.41259348 87.81903595 C52.41677292 81.99757949 52.41042277 76.17619634 52.39579475 70.35475694 C52.38774051 66.99780825 52.38626512 63.64119255 52.39461708 60.28422165 C52.40297943 56.64397342 52.39302985 53.00421691 52.37854004 49.36399841 C52.38543397 48.3058367 52.39232791 47.24767498 52.39943075 46.15744776 C52.34325756 38.92447583 51.35968528 34.14624704 46.9375 28.25 C38.89966851 22.09336311 26.70529547 21.37216815 16.9375 19.375 C14.66057307 18.90860382 12.38396818 18.44087581 10.10829163 17.96841431 C8.70232786 17.67653818 7.29563512 17.38814718 5.88816833 17.10360718 C1.11262308 16.11262308 1.11262308 16.11262308 0 15 C0 10.05 0 5.1 0 0 Z " fill="#006FAA" transform="translate(166,1058)"/>
<ρath d="M0 0 C20.80304747 18.36338739 28.65912035 44.0382056 31 71 C31.32568976 76.9541367 31.2814611 82.91641731 31.27124023 88.87744141 C31.27564037 90.60403689 31.28094713 92.33063026 31.28707886 94.05722046 C31.29847184 97.73908403 31.30403022 101.42089087 31.30496025 105.10277176 C31.30691862 110.9278094 31.32506272 116.75273095 31.34571838 122.57772827 C31.39464448 137.02969162 31.4258422 151.48168577 31.44702148 165.93371582 C31.46354845 177.20133194 31.48632757 188.46884637 31.53004223 199.73639429 C31.5517921 205.52525168 31.55987929 211.31391566 31.55764949 217.1028111 C31.55931609 220.69772946 31.57336138 224.2925211 31.59086227 227.88739395 C31.59645962 229.55226215 31.59694899 231.21715664 31.59192467 232.88202667 C31.58578014 235.15647349 31.59801893 237.43012098 31.61473083 239.70449829 C31.61674216 240.97607096 31.61875349 242.24764362 31.62082577 243.55774879 C32.17431503 248.58248126 33.98398833 251.83385603 37.2734375 255.609375 C42.46929524 259.6210008 49.38415926 260.66086885 55.625 262.25 C56.96131991 262.60272103 58.29726214 262.95687621 59.6328125 263.3125 C64.4136689 264.57573441 69.20273785 265.80068446 74 267 C74 271.95 74 276.9 74 282 C27.47 282 -19.06 282 -67 282 C-67 277.05 -67 272.1 -67 267 C-64.6384375 266.48050781 -62.276875 265.96101563 -59.84375 265.42578125 C-57.5326856 264.90638715 -55.22286003 264.38178816 -52.91308594 263.85668945 C-51.3199035 263.49740134 -49.72550727 263.14344869 -48.12988281 262.79516602 C-35.47282703 260.63120177 -35.47282703 260.63120177 -25 254 C-22.60433777 249.14518736 -21.62438441 245.62410035 -21.61904907 240.13160706 C-21.61202911 239.14960741 -21.61202911 239.14960741 -21.60486734 238.14776939 C-21.59298414 235.97273183 -21.60234851 233.79833228 -21.61181641 231.62329102 C-21.60774704 230.05530431 -21.60240312 228.48732048 -21.59588623 226.91934204 C-21.582231 222.66820894 -21.58750894 218.4172948 -21.59702349 214.16615796 C-21.60465217 209.69173447 -21.59756349 205.21732895 -21.59286499 200.74290466 C-21.58740715 193.21162587 -21.59458975 185.6804353 -21.60888672 178.14916992 C-21.62511249 169.50333376 -21.61999878 160.85771099 -21.6034075 152.21188027 C-21.58967201 144.74983635 -21.58793411 137.28785574 -21.59572351 129.82580322 C-21.60034755 125.38733347 -21.60117545 120.94896291 -21.59111404 116.51049995 C-20.89104664 81.10957542 -20.89104664 81.10957542 -29 47 C-29.34675781 46.12730469 -29.69351563 45.25460937 -30.05078125 44.35546875 C-35.72864403 31.65344583 -45.58326739 23.83898055 -58.25 18.75 C-81.1541379 11.02950408 -108.54200344 14.39743656 -130.06640625 24.9375 C-139.32414865 29.73160986 -146.68007672 35.59142713 -154 43 C-154.66 43.66 -155.32 44.32 -156 45 C-156.19981087 47.65710706 -156.27364309 50.21034178 -156.26069641 52.86883545 C-156.26452196 53.69118848 -156.26834751 54.51354151 -156.27228898 55.36081433 C-156.28265489 58.13220841 -156.27862002 60.90339669 -156.2746582 63.67480469 C-156.2790028 65.65548902 -156.28418509 67.63617167 -156.29014587 69.61685181 C-156.30357695 75.00954506 -156.3041098 80.40216841 -156.30158257 85.79487514 C-156.30051525 90.29285985 -156.30539029 94.79083027 -156.310188 99.28881192 C-156.32129822 109.90088541 -156.32171263 120.51292351 -156.31567383 131.125 C-156.30963691 142.07786641 -156.32193447 153.03060427 -156.3432439 163.98344874 C-156.36085368 173.37969176 -156.36686208 182.77589384 -156.36360615 192.17215276 C-156.36179155 197.78719527 -156.3644468 203.40214617 -156.37832069 209.01717377 C-156.3908836 214.29980002 -156.38896941 219.58222596 -156.37590981 224.86484909 C-156.37354081 226.80385022 -156.37629023 228.74286538 -156.38453293 230.68185043 C-156.39497516 233.32921012 -156.38691994 235.97589465 -156.3742218 238.62322998 C-156.38528323 239.77392538 -156.38528323 239.77392538 -156.39656812 240.94786716 C-156.33453089 247.09739544 -154.73637499 251.00704727 -150.7265625 255.609375 C-145.53070476 259.6210008 -138.61584074 260.66086885 -132.375 262.25 C-131.03868009 262.60272103 -129.70273786 262.95687621 -128.3671875 263.3125 C-123.5863311 264.57573441 -118.79726215 265.80068446 -114 267 C-114 271.95 -114 276.9 -114 282 C-160.53 282 -207.06 282 -255 282 C-255 277.05 -255 272.1 -255 267 C-252.6384375 266.48050781 -250.276875 265.96101563 -247.84375 265.42578125 C-245.5326856 264.90638715 -243.22286003 264.38178816 -240.91308594 263.85668945 C-239.3199035 263.49740134 -237.72550727 263.14344869 -236.12988281 262.79516602 C-223.53369262 260.57812985 -223.53369262 260.57812985 -213 254 C-209.902754 248.95021647 -209.57103092 245.0445353 -209.61904907 239.30847168 C-209.6143691 238.44594898 -209.60968913 237.58342628 -209.60486734 236.69476652 C-209.59292359 233.81132748 -209.60237219 230.92836425 -209.61181641 228.04492188 C-209.60775043 225.97497785 -209.60240841 223.90503601 -209.59588623 221.83509827 C-209.58220994 216.21740713 -209.58751265 210.59988129 -209.59702349 204.98218727 C-209.60461841 199.103314 -209.59757493 193.22445488 -209.59286499 187.34558105 C-209.58740696 177.4730373 -209.59460033 167.60056088 -209.60888672 157.72802734 C-209.62521328 146.31382651 -209.61992481 134.89978644 -209.6034075 123.4855895 C-209.58979402 113.6858665 -209.58787232 103.8861919 -209.59572351 94.0864625 C-209.60040076 88.23339102 -209.60102338 82.38039511 -209.59111404 76.52732849 C-209.58244872 71.02467256 -209.58845853 65.52222392 -209.60579681 60.01959038 C-209.60976395 57.99996218 -209.60862374 55.98031653 -209.60200882 53.96069527 C-209.59381234 51.20407068 -209.6040921 48.44811056 -209.61904907 45.69152832 C-209.61235691 44.892108 -209.60566474 44.09268767 -209.59876978 43.26904249 C-209.65745735 37.69346459 -210.78434076 33.5713811 -214.52978516 29.22460938 C-218.85890875 25.56677802 -223.05106378 23.38802444 -228.375 21.5 C-229.14505371 21.21374756 -229.91510742 20.92749512 -230.70849609 20.63256836 C-233.13299247 19.73737349 -235.56493765 18.8660041 -238 18 C-238.82177734 17.70496582 -239.64355469 17.40993164 -240.49023438 17.10595703 C-245.31694345 15.3748871 -250.15349453 13.67480505 -255 12 C-255 8.7 -255 5.4 -255 2 C-233.37643054 -3.05094824 -211.6984139 -7.84577635 -189.99778748 -12.55286026 C-187.93259887 -13.00106368 -185.86758638 -13.4500708 -183.8026123 -13.89926147 C-179.898965 -14.74816064 -175.99447939 -15.59315772 -172.08984375 -16.4375 C-170.89864426 -16.69650589 -169.70744476 -16.95551178 -168.48014832 -17.22236633 C-167.39091568 -17.45707138 -166.30168304 -17.69177643 -165.17944336 -17.93359375 C-164.2235582 -18.14040771 -163.26767303 -18.34722168 -162.28282166 -18.56030273 C-160 -19 -160 -19 -158 -19 C-157.67 -3.82 -157.34 11.36 -157 27 C-154.03 23.37 -151.06 19.74 -148 16 C-111.86073132 -23.65906155 -43.4172369 -37.82962728 0 0 Z " fill="#006FAA" transform="translate(836,1194)"/>
<ρath d="M0 0 C17.8400919 16.90727664 27.88300135 37.48273012 28.88012695 62.14404297 C28.99851931 67.45082031 28.93534707 72.75531673 28.875 78.0625 C28.86283649 80.15518597 28.85181844 82.24787884 28.84179688 84.34057617 C28.80111439 91.29436256 28.72829327 98.24769162 28.65054321 105.20114136 C28.6234875 107.63612298 28.5971876 110.07111192 28.57104492 112.50610352 C28.38836364 129.50040833 28.20236604 146.49466975 27.98144531 163.48852539 C27.87699678 171.5419199 27.78371109 179.59535598 27.70480728 187.64904308 C27.66162163 192.05518384 27.61368978 196.4611602 27.55517578 200.86712646 C27.49849656 205.18663487 27.45720392 209.50603936 27.42701721 213.82581139 C27.41335497 215.42833506 27.39448716 217.03082426 27.36997986 218.63321877 C27.33717793 220.83594912 27.32353012 223.03802844 27.31445312 225.2409668 C27.30192505 226.47952927 27.28939697 227.71809174 27.27648926 228.9941864 C27.78141792 234.07347254 29.18327169 238.01707946 32.8125 241.75 C42.74632069 247.93104399 52.42472845 247.56190127 63.56884766 245.06274414 C65.10959438 244.69669372 66.64732878 244.31763811 68.18115234 243.92358398 C73.14086048 242.67672068 77.50706633 242.31494477 82.625 242.5 C83.375101 247.77154311 83.61062281 252.28506447 82.625 257.5 C79.35389819 261.6469706 75.19740342 263.99948607 70.625 266.5 C69.43263873 267.20150425 68.2412365 267.90464107 67.05078125 268.609375 C46.6060355 280.36599342 24.26626808 286.58467509 0.93383789 280.33862305 C-4.45019502 278.70941703 -8.43537536 276.47806001 -12.375 272.5 C-12.92414062 271.98695313 -13.47328125 271.47390625 -14.0390625 270.9453125 C-22.59629842 262.13515335 -23.58103859 249.09279608 -25.375 237.5 C-26.04144531 238.32242187 -26.70789062 239.14484375 -27.39453125 239.9921875 C-46.84564317 263.69165341 -71.98990507 279.02943161 -102.87109375 282.21875 C-129.7952506 284.14234444 -152.8540775 281.0210837 -174 262.875 C-189.84477981 247.88791482 -197.99908511 227.71734315 -198.72412109 206.14135742 C-199.01314758 182.22577865 -190.29451689 162.22539577 -174.375 144.5 C-151.19351174 120.8883398 -115.31293536 109.76263281 -83.375 105.5 C-82.43140625 105.36851562 -81.4878125 105.23703125 -80.515625 105.1015625 C-66.15545442 103.45148079 -51.53760959 104.46744917 -37.1796875 105.51171875 C-35.83327135 105.60749144 -34.48683586 105.70299276 -33.14038086 105.79821777 C-29.88505465 106.02949039 -26.62994794 106.26347306 -23.375 106.5 C-23.43658638 97.72782593 -23.51395625 88.9559667 -23.61071491 80.18410969 C-23.6551788 76.10965824 -23.69448545 72.03530128 -23.72143555 67.96069336 C-23.74771078 64.01824999 -23.7882776 60.07617509 -23.83818626 56.13396263 C-23.85469319 54.64035869 -23.86630698 53.14669126 -23.87261391 51.65300941 C-23.93492627 38.2347139 -24.76953567 24.37967825 -33.8671875 13.7578125 C-43.53050636 4.46438144 -57.60425348 4.02060268 -70.234375 4.23046875 C-99.81084676 5.35650472 -127.24581456 23.05624069 -149.72265625 40.93359375 C-150.43035156 41.48877686 -151.13804687 42.04395996 -151.8671875 42.6159668 C-153.2079675 43.67420271 -154.53588141 44.74903357 -155.84765625 45.84301758 C-160.51318818 49.52194272 -163.45446782 50.04953006 -169.375 49.5 C-171.19093368 44.49078884 -172.29201899 39.48115116 -173.3203125 34.26953125 C-173.49505096 33.39729416 -173.66978943 32.52505707 -173.849823 31.62638855 C-174.21635657 29.79206761 -174.5809977 27.95736761 -174.94384766 26.12231445 C-175.50043201 23.31031741 -176.0642297 20.49983509 -176.62890625 17.68945312 C-176.98480379 15.90373124 -177.34028702 14.11792672 -177.6953125 12.33203125 C-177.86402863 11.49138626 -178.03274475 10.65074127 -178.20657349 9.78462219 C-178.82441244 6.64444347 -179.375 3.7088551 -179.375 0.5 C-154.66191556 -12.56087596 -129.30466446 -22.24972782 -101.375 -25.5 C-99.96154297 -25.66628906 -99.96154297 -25.66628906 -98.51953125 -25.8359375 C-64.17384185 -29.26587139 -26.64776894 -23.31171237 0 0 Z M-56.8125 124.6875 C-57.94574707 124.81914551 -59.07899414 124.95079102 -60.24658203 125.08642578 C-75.3772694 126.97165119 -90.44808372 130.13131818 -104.375 136.5 C-105.44878906 136.98984375 -106.52257813 137.4796875 -107.62890625 137.984375 C-122.06841984 145.14446439 -134.062875 156.63838199 -139.59765625 172.03125 C-144.98514984 189.1412799 -143.71172778 208.24797754 -135.75 224.375 C-128.32364737 236.72131124 -117.72088702 243.77139159 -103.9375 247.375 C-82.28716374 251.68965776 -58.70478535 245.26494567 -40.375 233.5 C-36.80168786 230.71251999 -33.51724007 227.76411447 -30.375 224.5 C-29.85131836 224.05817383 -29.32763672 223.61634766 -28.78808594 223.16113281 C-24.9147281 219.50411225 -23.93696014 216.53065183 -23.5703125 211.234375 C-23.51538547 208.56861722 -23.49354461 205.91515918 -23.5 203.25 C-23.48209842 201.77495539 -23.46191458 200.29993709 -23.43969727 198.82495117 C-23.38502529 194.44570021 -23.37649507 190.06724045 -23.37640381 185.68768311 C-23.37484701 182.15259726 -23.36488382 178.61758876 -23.35400391 175.08251953 C-23.30450229 157.88812122 -23.3172739 140.69439438 -23.375 123.5 C-34.58911218 123.38003671 -45.65771986 123.3557152 -56.8125 124.6875 Z " fill="#006FAA" transform="translate(2240.375,1199.5)"/>
<ρath d="M0 0 C53.79 0 107.58 0 163 0 C163 4.95 163 9.9 163 15 C158.30618015 16.56460662 153.86827669 17.69944257 149.0390625 18.5859375 C147.49991283 18.87975204 145.96085301 19.1740376 144.421875 19.46875 C142.0246771 19.92349237 139.62698276 20.37463414 137.22753906 20.81738281 C134.89171369 21.25036976 132.55914579 21.69835458 130.2265625 22.1484375 C129.168358 22.33773331 129.168358 22.33773331 128.08877563 22.53085327 C121.59311332 23.80361756 115.29268661 25.61857969 111.30255604 31.23944855 C107.75965641 37.24862934 108.30589611 43.7829806 108.36076355 50.55310059 C108.35444691 52.03669412 108.345941 53.52027967 108.33544332 55.00384951 C108.31298904 59.06772218 108.32148326 63.13102532 108.3351289 67.19491529 C108.34440399 71.58205014 108.3248393 75.96906852 108.30880737 80.35617065 C108.28497978 87.95281748 108.27935552 95.54930206 108.28615379 103.14598083 C108.29595647 114.12941666 108.27821473 125.11267268 108.25378648 136.09607941 C108.21489818 153.91659598 108.19823402 171.7370611 108.19555664 189.55761719 C108.19290846 206.86688882 108.17978694 224.17610034 108.15258789 241.48535156 C108.15007782 243.08621551 108.15007782 243.08621551 108.14751705 244.71942014 C108.13905747 250.07355285 108.13039208 255.42768521 108.12162435 260.78181744 C108.04917287 305.18786778 108.01279355 349.59389509 108 394 C128.10599543 393.98619296 148.21173965 393.94396092 168.31759834 393.86790943 C177.65316504 393.83325954 186.98858409 393.80790391 196.32421875 393.80444336 C204.46138768 393.80140346 212.59829363 393.7809096 220.73536098 393.73947543 C225.04376472 393.71814595 229.35179461 393.70554446 233.66025162 393.71384621 C237.71684323 393.72138682 241.77267736 393.70556399 245.82913017 393.67193985 C247.31659017 393.66370658 248.8041255 393.66395676 250.29157829 393.67340279 C259.07886843 394.06114928 259.07886843 394.06114928 266.83586121 390.65629578 C269.34944545 387.57108551 270.64112814 384.70351649 271.73046875 380.9375 C271.9656572 380.18275391 272.20084564 379.42800781 272.44316101 378.65039062 C273.32456159 375.77491056 274.16400653 372.88901588 275 370 C275.36756409 368.74074707 275.73512817 367.48149414 276.11383057 366.18408203 C279.00004536 356.28041085 281.81858545 346.35781798 284.62493896 336.43127441 C286.44367675 330.0000626 288.2682327 323.57050427 290.09511375 317.14160156 C290.72907737 314.9074356 291.36032893 312.67251628 291.99128723 310.4375 C292.37601981 309.08070393 292.76083664 307.72393174 293.14575195 306.3671875 C293.64822197 304.58997314 293.64822197 304.58997314 294.1608429 302.77685547 C295 300 295 300 296 298 C301.61 298 307.22 298 313 298 C313 337.6 313 377.2 313 418 C209.71 418 106.42 418 0 418 C0 413.05 0 408.1 0 403 C4.75796145 401.41401285 9.325086 400.2365171 14.21484375 399.265625 C15.80426661 398.93600369 17.39345269 398.60523891 18.98242188 398.2734375 C21.45992667 397.7584657 23.93791765 397.24991771 26.4206543 396.76074219 C28.83581128 396.28236039 31.24385412 395.77638537 33.65234375 395.265625 C34.75110085 395.05900238 34.75110085 395.05900238 35.87205505 394.84820557 C41.3900295 393.6415736 45.24610417 391.25259533 49 387 C51.08042839 383.64322758 51.25202636 381.00575371 51.25726891 377.08972359 C51.2637178 375.87323793 51.27016669 374.65675226 51.276811 373.4034034 C51.27386866 372.05157882 51.27073321 370.69975465 51.26742554 369.34793091 C51.27116116 367.91332188 51.27576233 366.47871489 51.28115618 365.04411113 C51.29341242 361.09696125 51.29312264 357.14989595 51.29076743 353.20273137 C51.29035993 348.94769176 51.30139202 344.69267951 51.31088257 340.43765259 C51.32750772 332.09952829 51.33299279 323.76143226 51.33410732 315.42329277 C51.33505704 308.64711901 51.33916352 301.87095459 51.34550858 295.09478378 C51.36312481 275.89134573 51.3723468 256.68793005 51.37084763 237.48448385 C51.37072776 235.93102909 51.37072776 235.93102909 51.37060547 234.34619141 C51.37052371 233.30929333 51.37044195 232.27239526 51.37035771 231.20407604 C51.36954461 214.39537645 51.38868726 197.58676643 51.4168822 180.77809276 C51.44559113 163.52716144 51.45942361 146.27627384 51.45769465 129.02531803 C51.45703008 119.33694037 51.46255179 109.64865662 51.48405075 99.96030045 C51.50223633 91.71211463 51.5066315 83.46406528 51.4930319 75.21586813 C51.48648906 71.00649758 51.48643228 66.79738905 51.5037384 62.58804321 C51.51941631 58.73514744 51.51666012 54.88272258 51.49917014 51.02983867 C51.49608853 49.63551139 51.49977623 48.24114943 51.51089029 46.84686305 C51.76853555 37.06631776 51.76853555 37.06631776 47 29 C43.53326478 25.68753148 40.76662624 24.37361096 36.09765625 23.40234375 C34.96569824 23.15959717 33.83374023 22.91685059 32.66748047 22.66674805 C31.47783691 22.42609619 30.28819336 22.18544434 29.0625 21.9375 C27.85223145 21.68073486 26.64196289 21.42396973 25.39501953 21.15942383 C21.93253857 20.42677012 18.46695803 19.71111709 15 19 C12.12395254 18.40062204 9.24932284 17.79512887 6.375 17.1875 C5.33085938 16.97480469 4.28671875 16.76210937 3.2109375 16.54296875 C1 16 1 16 0 15 C0 10.05 0 5.1 0 0 Z " fill="#006FAA" transform="translate(1455,1058)"/>
<ρath d="M0 0 C1.40185547 1.15628906 1.40185547 1.15628906 2.83203125 2.3359375 C24.53470323 21.0943309 37.81736669 49.45972986 40 78 C40.15969011 82.31343546 40.1850435 86.62142219 40.1875 90.9375 C40.19974609 92.06607422 40.21199219 93.19464844 40.22460938 94.35742188 C40.22654297 95.46537109 40.22847656 96.57332031 40.23046875 97.71484375 C40.23457764 98.70605225 40.23868652 99.69726074 40.24291992 100.71850586 C39.93569325 104.86869051 38.90276493 108.93755783 38 113 C-25.36 113 -88.72 113 -154 113 C-151.396732 154.65228806 -147.90605836 198.64205392 -115.8125 229.1875 C-96.1915234 245.78201747 -70.08672918 250.4629049 -45.05859375 248.7265625 C-16.05764345 246.07453798 9.48243366 234.07555781 32 216 C35 214 35 214 39 214 C39.20474001 217.68667002 39.32809831 221.37186743 39.4375 225.0625 C39.49615234 226.10083984 39.55480469 227.13917969 39.61523438 228.20898438 C39.78299684 235.75829533 39.78299684 235.75829533 37.68310547 239.08837891 C35.89310169 240.92091743 34.04303482 242.45631339 32 244 C31.38503662 244.51892822 30.77007324 245.03785645 30.13647461 245.57250977 C11.88416817 260.87129148 -9.3729055 272.34344933 -32.125 279.3125 C-32.87515381 279.54300049 -33.62530762 279.77350098 -34.39819336 280.01098633 C-47.4483266 283.78774399 -60.10071024 285.50426331 -73.65405273 285.39111328 C-75.9333904 285.375029 -78.21094965 285.39107455 -80.49023438 285.41015625 C-113.4237223 285.45747067 -143.07535903 273.51967044 -167 251 C-167.66515625 250.41089844 -168.3303125 249.82179688 -169.015625 249.21484375 C-197.9324615 222.4726474 -207.38748594 178.55177237 -208.92529297 140.94140625 C-208.94994629 140.30074219 -208.97459961 139.66007812 -209 139 C-209.04253906 137.9584375 -209.08507813 136.916875 -209.12890625 135.84375 C-209.89476642 97.04016814 -199.76922592 53.95437393 -174 24 C-173.27296875 23.14792969 -172.5459375 22.29585937 -171.796875 21.41796875 C-169.58007704 18.89500464 -167.30475743 16.4426489 -165 14 C-164.27683594 13.20078125 -163.55367187 12.4015625 -162.80859375 11.578125 C-121.79738265 -32.00062385 -46.27144603 -38.59180575 0 0 Z M-123 17 C-123.66644531 17.65742187 -124.33289062 18.31484375 -125.01953125 18.9921875 C-130.57580644 24.83693748 -134.26002303 31.92415374 -138 39 C-138.4640625 39.87269531 -138.928125 40.74539063 -139.40625 41.64453125 C-147.13926194 57.38319337 -149.89599503 74.92797264 -153 92 C-107.46 92 -61.92 92 -15 92 C-14.92814133 78.44127528 -14.92814133 78.44127528 -16.1875 65.125 C-16.3882312 63.73547119 -16.3882312 63.73547119 -16.59301758 62.31787109 C-19.9413197 40.54924391 -27.03214909 19.28045356 -44.8125 5.125 C-70.11717026 -13.00467515 -102.72150104 -3.79379714 -123 17 Z " fill="#006FAA" transform="translate(1982,1198)"/>
<ρath d="M0 0 C1.0047836 3.43337222 1.262452 6.7414048 1.48071289 10.30639648 C1.56072037 11.585504 1.64072784 12.86461151 1.72315979 14.18247986 C1.80652088 15.57867282 1.88968116 16.97487779 1.97265625 18.37109375 C2.06069212 19.81398312 2.14894745 21.25685911 2.2374115 22.69972229 C2.42221541 25.72830114 2.604274 28.75702953 2.78442383 31.78588867 C3.01341476 35.63210883 3.24923435 39.47787275 3.48720646 43.32354641 C3.67109709 46.3083047 3.8511854 49.29328376 4.03021049 52.27833748 C4.11555885 53.69390947 4.20204675 55.10941331 4.28978157 56.5248394 C4.83538622 65.36743711 5.08413976 74.14027936 5 83 C-0.61 83 -6.22 83 -12 83 C-14.54182104 77.58429104 -16.71812572 72.11566319 -18.69921875 66.47265625 C-19.19173026 65.08907625 -19.68457501 63.70561483 -20.17773438 62.32226562 C-20.93523358 60.1959392 -21.68549066 58.06839429 -22.41381836 55.93188477 C-26.57157548 43.78630459 -32.03417126 33.93721578 -43.74609375 27.50390625 C-67.05801514 16.7294888 -92.50802114 9.25594038 -117.8125 17.75 C-130.61815871 22.92554111 -138.49925187 29.67544055 -144.0546875 42.38671875 C-148.4923849 54.65456818 -147.44381556 71.32083486 -142 83 C-132.70977844 100.22510575 -114.863694 106.79932294 -97.12240601 112.13066101 C-94.35459082 112.9488149 -91.58375702 113.75609071 -88.8125 114.5625 C-86.97819608 115.1050406 -85.14420999 115.64865692 -83.31054688 116.19335938 C-79.67776193 117.27076358 -76.04350671 118.34294375 -72.40771484 119.41015625 C-66.98575628 121.00264878 -61.56739249 122.60682528 -56.15234375 124.22265625 C-55.35182083 124.45988907 -54.55129791 124.69712189 -53.72651672 124.94154358 C-27.10643171 132.90113605 -1.58012569 144.47126993 12.49609375 169.84765625 C22.13148373 190.04443473 21.06960805 215.35542448 14.10083008 236.31176758 C5.88842361 258.9490602 -11.46234954 276.5872385 -33 287 C-53.70748029 296.43868401 -76.49250365 299.42522336 -99.0625 299.3125 C-100.20661346 299.30976578 -100.20661346 299.30976578 -101.37384033 299.30697632 C-114.11357307 299.25595889 -126.47624696 298.4826602 -139 296 C-140.18070068 295.77449463 -140.18070068 295.77449463 -141.38525391 295.54443359 C-154.09113822 293.03864482 -166.40909396 289.12185184 -178.75 285.25 C-179.54763763 284.99976074 -180.34527527 284.74952148 -181.16708374 284.49169922 C-183.44108573 283.77534329 -185.71315783 283.05325683 -187.984375 282.328125 C-189.02501854 281.99871918 -189.02501854 281.99871918 -190.08668518 281.66265869 C-194.88272833 280.11727167 -194.88272833 280.11727167 -196 279 C-196.09504251 276.47458998 -196.12557158 273.97662874 -196.11352539 271.45092773 C-196.11367142 270.66074249 -196.11381744 269.87055725 -196.1139679 269.056427 C-196.11326857 266.43212178 -196.10547527 263.80788664 -196.09765625 261.18359375 C-196.09579214 259.36898335 -196.0943682 257.55437244 -196.09336853 255.73976135 C-196.08954279 250.9540977 -196.07971204 246.1684642 -196.06866455 241.3828125 C-196.05845163 236.50325936 -196.05387117 231.62370136 -196.04882812 226.74414062 C-196.03808981 217.16274501 -196.02049257 207.58137972 -196 198 C-190.39 198 -184.78 198 -179 198 C-178.62713867 199.18029785 -178.25427734 200.3605957 -177.87011719 201.57666016 C-176.47813122 205.97426356 -175.07368383 210.36780446 -173.66552734 214.76025391 C-173.05895336 216.65826434 -172.4557189 218.55734552 -171.85595703 220.45751953 C-170.99096236 223.19595207 -170.1138463 225.93024992 -169.234375 228.6640625 C-168.97066101 229.50804596 -168.70694702 230.35202942 -168.4352417 231.22158813 C-164.13076327 244.4740257 -154.2421315 250.40835974 -142.4375 256.625 C-117.0855461 268.77927378 -85.72570213 277.84862834 -58 269 C-42.96147963 263.11167794 -34.78982109 255.91925553 -28 241 C-24.07116224 231.1779056 -24.3210052 216.00568967 -27.96875 206.16015625 C-34.53895181 192.39757443 -45.85330891 184.39685251 -59.99252319 179.27874756 C-62.12312483 178.56883599 -64.26099659 177.89089306 -66.40625 177.2265625 C-67.21754364 176.97293945 -68.02883728 176.71931641 -68.86471558 176.45800781 C-80.95979901 172.72374001 -93.19039761 169.44385694 -105.39892578 166.10449219 C-163.2992959 150.24018955 -163.2992959 150.24018955 -179.14599609 124.11035156 C-191.23220253 102.68841018 -195.09791166 78.82714664 -189.22265625 54.82421875 C-185.52730228 42.8500031 -179.32781533 32.31560365 -171 23 C-170.27296875 22.17886719 -169.5459375 21.35773438 -168.796875 20.51171875 C-125.67763006 -25.39171585 -54.25966337 -13.7004792 0 0 Z " fill="#006FAA" transform="translate(2839,1185)"/>
<ρath d="M0 0 C1.94572285 2.21577512 3.4941105 4.63303029 5.0625 7.125 C5.48337891 7.764375 5.90425781 8.40375 6.33789062 9.0625 C15.28831437 22.88361946 15.28831437 22.88361946 14 31 C9.18609831 38.04147838 2.86759419 41.26534227 -4.5625 45.1875 C-5.78067971 45.84461713 -6.99795455 46.50341428 -8.21435547 47.16381836 C-10.05750825 48.16416079 -11.90115579 49.16342313 -13.74780273 50.15730286 C-19.09390936 53.03481003 -24.36729822 56.02735347 -29.625 59.0625 C-37.15553841 63.39175908 -44.72476108 67.6468696 -52.3125 71.875 C-60.66195892 76.52986028 -68.94674721 81.2804484 -77.1875 86.125 C-85.63728794 91.08887234 -94.16376312 95.87343584 -102.78417969 100.53393555 C-112.29790491 105.68222877 -121.703522 111.01590325 -131.10888672 116.35888672 C-135.90194946 119.07962374 -140.70124962 121.78931154 -145.5 124.5 C-151.22755389 127.73653177 -156.9546166 130.97392152 -162.6796875 134.21484375 C-172.6475441 139.85588053 -182.62735587 145.47440774 -192.625 151.0625 C-198.64088275 154.42721342 -204.65355295 157.79720079 -210.6484375 161.19921875 C-211.54312744 161.70662598 -212.43781738 162.2140332 -213.35961914 162.73681641 C-215.10290724 163.73588249 -216.83930198 164.74708635 -218.56811523 165.77099609 C-222.64140802 168.17375227 -226.622076 170.31970159 -231.01171875 172.08984375 C-237.80001218 174.95768029 -237.80001218 174.95768029 -243 180 C-244.95373466 186.304479 -244.92051773 192.75121258 -244.8671875 199.296875 C-244.89755706 207.19865508 -244.89755706 207.19865508 -248 211 C-251.25693848 213.3337611 -254.71142436 215.19227576 -258.25 217.0625 C-260.34919729 218.20919808 -262.44814894 219.35634594 -264.546875 220.50390625 C-265.62130859 221.08414551 -266.69574219 221.66438477 -267.80273438 222.26220703 C-272.73797757 224.94463381 -277.61708337 227.72383581 -282.5 230.5 C-284.41897949 231.58515079 -286.33825126 232.66978487 -288.2578125 233.75390625 C-292.06586962 235.90620203 -295.87309507 238.05995864 -299.6796875 240.21484375 C-309.64754259 245.85587968 -319.62720252 251.4746836 -329.625 257.0625 C-338.11271236 261.80693697 -346.57069456 266.5994454 -355.00561523 271.43701172 C-362.2095054 275.56240493 -369.44420154 279.63174898 -376.6875 283.6875 C-377.78191406 284.30044922 -378.87632813 284.91339844 -380.00390625 285.54492188 C-392.61463554 292.59634112 -392.61463554 292.59634112 -399 291 C-408.60216324 284.24739959 -414.38984905 270.97337859 -420 261 C-420.4012207 260.29633301 -420.80244141 259.59266602 -421.21582031 258.86767578 C-425.10344728 251.97753585 -428.41124557 246.08258828 -427 238 C-423.78037089 232.7056901 -418.96657853 230.38332299 -413.6875 227.5 C-412.29893799 226.72450806 -412.29893799 226.72450806 -410.88232422 225.93334961 C-408.91870615 224.83686712 -406.95282532 223.74442841 -404.98486328 222.65576172 C-401.13461903 220.51995634 -397.30436396 218.34981774 -393.47436523 216.17797852 C-390.58909296 214.54214211 -387.70117233 212.91107392 -384.8125 211.28125 C-380.9777253 209.11712111 -377.14436403 206.9505284 -373.3125 204.78125 C-363.34751213 199.14104631 -353.37026079 193.52389863 -343.375 187.9375 C-334.87325147 183.18521713 -326.4011839 178.38495166 -317.95263672 173.53881836 C-310.09843143 169.04039258 -302.19896543 164.62454411 -294.296875 160.2109375 C-286.82038702 156.03073363 -279.37583326 151.79804487 -271.9465332 147.53466797 C-265.2210351 143.68153788 -258.45806681 139.89825384 -251.6875 136.125 C-243.37816197 131.4930947 -235.13585903 126.76290419 -226.9375 121.9375 C-217.9907331 116.67642004 -208.9359953 111.66088658 -199.79101562 106.75366211 C-190.65213988 101.84129226 -181.65425272 96.70223588 -172.66259766 91.52685547 C-167.99556906 88.85056748 -163.31014185 86.20691092 -158.625 83.5625 C-157.66698486 83.02165771 -156.70896973 82.48081543 -155.72192383 81.92358398 C-153.78082182 80.82785576 -151.83965961 79.73223418 -149.8984375 78.63671875 C-147.03544414 77.02001495 -144.17374501 75.40104573 -141.3125 73.78125 C-131.34751213 68.14104631 -121.37026079 62.52389863 -111.375 56.9375 C-102.87325147 52.18521713 -94.4011839 47.38495166 -85.95263672 42.53881836 C-79.15966694 38.64820572 -72.3343865 34.8173159 -65.5 31 C-57.7705025 26.68217125 -50.05757684 22.3382987 -42.375 17.9375 C-41.54170166 17.46078857 -40.70840332 16.98407715 -39.84985352 16.49291992 C-36.20621713 14.40839166 -32.56299726 12.32316739 -28.92236328 10.23339844 C-25.76337312 8.42178772 -22.6007628 6.61663756 -19.4375 4.8125 C-17.96385986 3.96449829 -17.96385986 3.96449829 -16.46044922 3.09936523 C-15.54408691 2.57802002 -14.62772461 2.0566748 -13.68359375 1.51953125 C-12.47014282 0.82500854 -12.47014282 0.82500854 -11.23217773 0.11645508 C-6.87718953 -2.06175351 -4.31981856 -2.53797559 0 0 Z " fill="#006FAA" transform="translate(1716,580)"/>
<ρath d="M0 0 C2.67311293 2.07195174 3.54087559 3.98301712 4.38671875 7.2109375 C4.7118042 8.45109619 4.7118042 8.45109619 5.04345703 9.71630859 C5.25599121 10.59367676 5.46852539 11.47104492 5.6875 12.375 C5.90519043 13.2717041 6.12288086 14.1684082 6.34716797 15.09228516 C10.30275603 32.29492459 10.30275603 32.29492459 6.171875 38.94140625 C2.1807048 43.32420031 -3.21280011 45.80428495 -8.375 48.5625 C-10.64095363 49.80148249 -12.9065715 51.04107923 -15.171875 52.28125 C-16.31591797 52.90257812 -17.45996094 53.52390625 -18.63867188 54.1640625 C-23.66498567 56.9094053 -28.64526803 59.73381223 -33.625 62.5625 C-35.52590215 63.6382674 -37.42694383 64.71378829 -39.328125 65.7890625 C-41.21878688 66.85930985 -43.10941193 67.92962226 -45 69 C-56.85996568 75.71465321 -68.72818156 82.41331178 -80.625 89.0625 C-89.12674853 93.81478287 -97.5988161 98.61504834 -106.04736328 103.46118164 C-113.90156857 107.95960742 -121.80103457 112.37545589 -129.703125 116.7890625 C-137.17961298 120.96926637 -144.62416674 125.20195513 -152.0534668 129.46533203 C-158.77896726 133.31846348 -165.54203364 137.10156278 -172.3125 140.875 C-181.79596046 146.16443066 -191.19995016 151.57725114 -200.56420898 157.07470703 C-207.11444114 160.9165594 -213.69903615 164.68602179 -220.35766602 168.3371582 C-222.87390656 169.72958088 -224.95438445 170.95438445 -227 173 C-228.26420436 178.45906429 -228.29079344 184.05420088 -228.4296875 189.63476562 C-228.6460921 194.65264735 -229.41178234 198.57446733 -232 203 C-234.36382378 204.80904881 -236.40557254 206.12783206 -239 207.5 C-240.0991272 208.11439941 -240.0991272 208.11439941 -241.22045898 208.74121094 C-242.87747593 209.66400406 -244.53987974 210.57716721 -246.20654297 211.48242188 C-250.36301415 213.74047334 -254.49372503 216.04447264 -258.62817383 218.3425293 C-260.93773795 219.62529211 -263.24880135 220.90535886 -265.5612793 222.18286133 C-273.20875266 226.41107223 -280.78145855 230.75475759 -288.3125 235.1875 C-296.71633485 240.13040516 -305.19652916 244.89260437 -313.77368164 249.52758789 C-320.47531816 253.15294482 -327.12174859 256.86730317 -333.75 260.625 C-335.18424316 261.43275879 -335.18424316 261.43275879 -336.64746094 262.25683594 C-341.16222208 264.80287025 -345.65210458 267.37772201 -350.09765625 270.04296875 C-350.89655273 270.51202637 -351.69544922 270.98108398 -352.51855469 271.46435547 C-353.98676603 272.32721871 -355.4456017 273.20636717 -356.89160156 274.10595703 C-362.22414896 277.20382647 -366.88546277 277.80326801 -373 277 C-386.72532449 272.07741527 -409.65972282 251.832135 -417.24609375 238.87109375 C-418.27515338 236.31710637 -418.47722413 234.72699502 -418 232 C-413.43686991 227.58219252 -407.56328031 224.94154992 -402 222 C-394.12704509 217.78783558 -386.2999438 213.51902771 -378.5625 209.0625 C-370.90468064 204.65398473 -363.21540462 200.30699767 -355.5 196 C-346.95368279 191.22685676 -338.43672818 186.40684985 -329.9465332 181.53466797 C-323.22103451 177.68153754 -316.45804171 173.89829967 -309.6875 170.125 C-301.33807176 165.47008294 -293.0532542 160.71955243 -284.8125 155.875 C-276.36271206 150.91112766 -267.83623688 146.12656416 -259.21582031 141.46606445 C-249.70209509 136.31777123 -240.296478 130.98409675 -230.89111328 125.64111328 C-226.09805043 122.9203762 -221.2987278 120.21072862 -216.5 117.5 C-214.58330302 116.4167203 -212.66663636 115.33338696 -210.75 114.25 C-206.91666667 112.08333333 -203.08333333 109.91666667 -199.25 107.75 C-197.8271167 106.94574585 -197.8271167 106.94574585 -196.37548828 106.12524414 C-194.45723038 105.04103266 -192.53893606 103.95688561 -190.62060547 102.87280273 C-185.85298522 100.17843007 -181.08598623 97.48297052 -176.3203125 94.78515625 C-166.35245741 89.14412032 -156.37279748 83.5253164 -146.375 77.9375 C-137.87325147 73.18521713 -129.4011839 68.38495166 -120.95263672 63.53881836 C-113.09843143 59.04039258 -105.19896543 54.62454411 -97.296875 50.2109375 C-89.82038702 46.03073363 -82.37583326 41.79804487 -74.9465332 37.53466797 C-68.22103606 33.68153843 -61.45811032 29.89817478 -54.6875 26.125 C-45.09570403 20.77952165 -35.58682826 15.30574778 -26.14135742 9.70556641 C-7.81711285 -1.09713865 -7.81711285 -1.09713865 0 0 Z " fill="#006FAA" transform="translate(1747,648)"/>
<ρath d="M0 0 C4.33480313 2.61398156 8.26472645 5.6830854 12.1875 8.875 C13.21230469 9.69742188 14.23710938 10.51984375 15.29296875 11.3671875 C18.58894633 14.57279918 20.50903242 17.59381657 21.43359375 22.125 C21.43488281 22.74375 21.43617188 23.3625 21.4375 24 C21.46650391 24.928125 21.46650391 24.928125 21.49609375 25.875 C20.52201404 30.04743593 18.51882712 32.89440191 15.10571289 35.37890625 C12.71102329 36.82994484 10.27932587 38.17526959 7.8125 39.5 C6.43058472 40.26594482 6.43058472 40.26594482 5.02075195 41.04736328 C3.04210324 42.14317425 1.06013119 43.2330019 -0.92480469 44.31738281 C-6.07372109 47.13465272 -11.19139057 50.00759533 -16.3125 52.875 C-17.35792969 53.45813965 -18.40335938 54.0412793 -19.48046875 54.64208984 C-26.76838549 58.71639299 -33.98983102 62.8936537 -41.1875 67.125 C-49.63728794 72.08887234 -58.16376312 76.87343584 -66.78417969 81.53393555 C-76.29790491 86.68222877 -85.703522 92.01590325 -95.10888672 97.35888672 C-99.90194957 100.0796238 -104.7012722 102.78927138 -109.5 105.5 C-111.41669698 106.5832797 -113.33336364 107.66661304 -115.25 108.75 C-119.08333333 110.91666667 -122.91666667 113.08333333 -126.75 115.25 C-127.69858887 115.78616943 -128.64717773 116.32233887 -129.62451172 116.87475586 C-131.54276962 117.95896734 -133.46106394 119.04311439 -135.37939453 120.12719727 C-140.14701478 122.82156993 -144.91401377 125.51702948 -149.6796875 128.21484375 C-151.57808173 129.28913897 -153.47651936 130.3633575 -155.375 131.4375 C-156.31931885 131.97189697 -157.2636377 132.50629395 -158.23657227 133.05688477 C-163.20329827 135.86456678 -168.17648365 138.65999792 -173.16015625 141.4375 C-185.01061543 148.04385411 -196.79696743 154.73730483 -208.47436523 161.64624023 C-209.41868408 162.20255127 -210.36300293 162.7588623 -211.3359375 163.33203125 C-212.16657715 163.82421143 -212.9972168 164.3163916 -213.85302734 164.82348633 C-216 166 -216 166 -219 167 C-220.16790338 170.04858724 -220.24273694 173.26381945 -220.46484375 176.5 C-220.54283203 177.551875 -220.62082031 178.60375 -220.70117188 179.6875 C-220.85870442 181.89555948 -221.01235168 184.10389959 -221.16210938 186.3125 C-221.24138672 187.364375 -221.32066406 188.41625 -221.40234375 189.5 C-221.50276978 190.93859375 -221.50276978 190.93859375 -221.60522461 192.40625 C-222.01960869 195.12883287 -222.42817513 196.74196911 -224 199 C-226.32470703 200.60888672 -226.32470703 200.60888672 -229.2578125 202.1796875 C-230.34602295 202.77152832 -231.4342334 203.36336914 -232.55541992 203.97314453 C-233.13649506 204.28270081 -233.71757019 204.59225708 -234.31625366 204.91119385 C-237.40907917 206.55923271 -240.48235317 208.24314615 -243.55859375 209.921875 C-244.18649307 210.26320465 -244.8143924 210.6045343 -245.46131897 210.95620728 C-251.44569974 214.21834157 -257.32124167 217.65543916 -263.1875 221.125 C-272.09089938 226.36913536 -281.10499548 231.36114517 -290.20947266 236.24658203 C-299.34816439 241.15890905 -308.34590486 246.29785482 -317.33740234 251.47314453 C-322.95217066 254.69290989 -328.59239378 257.8678369 -334.22973633 261.04785156 C-339.31192236 263.91492514 -344.38999453 266.78885827 -349.4609375 269.67578125 C-350.51361816 270.27398682 -351.56629883 270.87219238 -352.65087891 271.48852539 C-354.67778184 272.64057397 -356.70354705 273.79462717 -358.72802734 274.95092773 C-359.63762207 275.46727783 -360.5472168 275.98362793 -361.484375 276.515625 C-362.68658691 277.20060059 -362.68658691 277.20060059 -363.91308594 277.89941406 C-368.54204832 280.34061229 -372.87640597 280.60543351 -378 280 C-382.72229279 277.69132353 -384.237043 274.09347957 -385.9609375 269.36328125 C-389.61191856 257.54563202 -392.77550628 245.32444982 -394 233 C-394.13019531 231.86691406 -394.26039062 230.73382812 -394.39453125 229.56640625 C-394.47058594 228.43074219 -394.54664063 227.29507813 -394.625 226.125 C-394.69976563 225.11695313 -394.77453125 224.10890625 -394.8515625 223.0703125 C-392.89946264 216.03200749 -385.6034008 212.63949524 -379.61328125 209.23828125 C-377.81608211 208.25503372 -376.01286871 207.28438825 -374.20495605 206.32098389 C-371.60727366 204.9366871 -369.02195121 203.52997437 -366.43557739 202.12469482 C-365.1299457 201.41558058 -363.82369346 200.70760765 -362.51681519 200.00079346 C-357.0472195 197.04016983 -351.63765076 193.98228396 -346.25 190.875 C-338.76157487 186.5655406 -331.23499965 182.33011011 -323.6875 178.125 C-315.33801573 173.47019945 -307.05312851 168.71975409 -298.8125 163.875 C-290.38964207 158.92440551 -281.88418396 154.1708479 -273.28393555 149.53637695 C-266.47891187 145.85171747 -259.79150534 141.991468 -253.125 138.0625 C-244.11674927 132.75683934 -235.00345032 127.69688792 -225.79174805 122.75415039 C-216.6527352 117.84141745 -207.65450896 112.70238336 -198.66259766 107.52685547 C-193.99556906 104.85056748 -189.31014185 102.20691092 -184.625 99.5625 C-183.66698486 99.02165771 -182.70896973 98.48081543 -181.72192383 97.92358398 C-179.78082182 96.82785576 -177.83965961 95.73223418 -175.8984375 94.63671875 C-173.03544414 93.02001495 -170.17374501 91.40104573 -167.3125 89.78125 C-157.34751213 84.14104631 -147.37026079 78.52389863 -137.375 72.9375 C-128.87095798 68.18393512 -120.39600253 63.38339577 -111.94604492 58.53442383 C-105.22074376 54.68131386 -98.45788278 50.89821109 -91.6875 47.125 C-83.33807176 42.47008294 -75.0532542 37.71955243 -66.8125 32.875 C-58.3775459 27.91984189 -49.86865879 23.13831408 -41.25976562 18.49243164 C-33.21382192 14.14443755 -25.25760044 9.64536552 -17.32202148 5.09936523 C-16.40751221 4.57802002 -15.49300293 4.0566748 -14.55078125 3.51953125 C-13.74294189 3.05651611 -12.93510254 2.59350098 -12.1027832 2.11645508 C-7.96482978 -0.08055653 -4.64008635 -0.39322766 0 0 Z " fill="#006FAA" transform="translate(1661,523)"/>
<ρath d="M0 0 C1.32741211 0.42539062 1.32741211 0.42539062 2.68164062 0.859375 C8.59996339 2.87151726 13.81553563 5.44270913 18.3125 9.875 C19.75 13.25 19.75 13.25 19.3125 16.875 C14.98130027 23.63982154 8.87892532 27.32257709 1.9375 31 C-0.119854 32.12618822 -2.1771434 33.25249445 -4.234375 34.37890625 C-5.29591797 34.9527002 -6.35746094 35.52649414 -7.45117188 36.11767578 C-12.76791749 39.00466544 -18.03766494 41.97485416 -23.3125 44.9375 C-24.36034668 45.52354004 -25.40819336 46.10958008 -26.48779297 46.71337891 C-33.92952567 50.87617395 -41.33843673 55.09355054 -48.73486328 59.33618164 C-56.58906857 63.83460742 -64.48853457 68.25045589 -72.390625 72.6640625 C-79.86711298 76.84426637 -87.31166674 81.07695513 -94.7409668 85.34033203 C-101.46647021 89.19346516 -108.22965941 92.97633328 -115 96.75 C-123.67050143 101.58950652 -132.29460221 106.50238694 -140.875 111.5 C-141.87249268 112.07991699 -142.86998535 112.65983398 -143.89770508 113.25732422 C-152.36834368 117.44873082 -152.36834368 117.44873082 -158.6875 123.875 C-158.873506 125.62749685 -159.0086023 127.3855393 -159.1171875 129.14453125 C-159.19066406 130.19833984 -159.26414062 131.25214844 -159.33984375 132.33789062 C-159.48747207 134.55879035 -159.62817562 136.78016197 -159.76171875 139.00195312 C-159.87580078 140.5884668 -159.87580078 140.5884668 -159.9921875 142.20703125 C-160.0847583 143.65686401 -160.0847583 143.65686401 -160.17919922 145.13598633 C-160.9716064 149.40592687 -162.45611374 151.98586861 -165.98974609 154.53735352 C-166.88773926 155.02131592 -167.78573242 155.50527832 -168.7109375 156.00390625 C-169.72091797 156.55755859 -170.73089844 157.11121094 -171.77148438 157.68164062 C-173.40053711 158.55079102 -173.40053711 158.55079102 -175.0625 159.4375 C-177.3520558 160.68789924 -179.6411112 161.93921515 -181.9296875 163.19140625 C-183.07405273 163.81289551 -184.21841797 164.43438477 -185.39746094 165.07470703 C-190.03165492 167.61051487 -194.61119445 170.23660612 -199.1875 172.875 C-207.88686627 177.86790496 -216.63368593 182.77299165 -225.390625 187.6640625 C-232.0104469 191.36529297 -238.60870778 195.10136846 -245.1875 198.875 C-253.83163255 203.83234798 -262.51421097 208.71823711 -271.21704102 213.57177734 C-276.50629759 216.52367299 -281.78273789 219.49468289 -287.03515625 222.51171875 C-288.05883301 223.09767822 -289.08250977 223.6836377 -290.13720703 224.28735352 C-292.06182767 225.39057412 -293.98361596 226.49875819 -295.90185547 227.61303711 C-313.55156379 237.70947474 -313.55156379 237.70947474 -323.6875 235.875 C-326.50419998 234.02010001 -327.35728795 232.83811849 -328.4375 229.6875 C-329.14822867 221.69180241 -328.40984858 213.9364502 -327.4375 206 C-327.30400146 204.9080835 -327.17050293 203.81616699 -327.03295898 202.69116211 C-325.78806323 192.95452737 -324.1322931 183.38361204 -321.6875 173.875 C-321.42582031 172.83730469 -321.16414063 171.79960938 -320.89453125 170.73046875 C-317.5837767 160.36298855 -306.41402955 155.96429656 -297.375 151.1875 C-295.42613304 150.14109085 -293.47823909 149.0928678 -291.53125 148.04296875 C-290.55414062 147.51622559 -289.57703125 146.98948242 -288.5703125 146.44677734 C-284.13491141 144.0284921 -279.75309045 141.52017189 -275.375 139 C-267.74018734 134.60810862 -260.06948165 130.28646699 -252.375 126 C-244.02548403 121.34524445 -235.74075036 116.59455018 -227.5 111.75 C-219.05021206 106.78612766 -210.52373688 102.00156416 -201.90332031 97.34106445 C-192.38959509 92.19277123 -182.983978 86.85909675 -173.57861328 81.51611328 C-168.78555043 78.7953762 -163.9862278 76.08572862 -159.1875 73.375 C-157.27080302 72.2917203 -155.35413636 71.20838696 -153.4375 70.125 C-149.60416667 67.95833333 -145.77083333 65.79166667 -141.9375 63.625 C-140.5146167 62.82074585 -140.5146167 62.82074585 -139.06298828 62.00024414 C-137.14473038 60.91603266 -135.22643606 59.83188561 -133.30810547 58.74780273 C-128.54048522 56.05343007 -123.77348623 53.35797052 -119.0078125 50.66015625 C-109.03995741 45.01912032 -99.06029748 39.4003164 -89.0625 33.8125 C-81.41537461 29.53793191 -73.78752829 25.23274759 -66.1875 20.875 C-58.28503213 16.34979251 -50.37031787 11.84681747 -42.4375 7.375 C-41.40173828 6.7871875 -40.36597656 6.199375 -39.29882812 5.59375 C-36.44428845 3.98911612 -33.57394655 2.42138508 -30.6875 0.875 C-29.91341797 0.44832031 -29.13933594 0.02164062 -28.34179688 -0.41796875 C-18.78749146 -5.25022615 -9.73244027 -3.41892367 0 0 Z " fill="#006FAA" transform="translate(1593.6875,486.125)"/>
<ρath d="M0 0 C0.72574219 -0.01933594 1.45148438 -0.03867187 2.19921875 -0.05859375 C5.29476932 0.66808818 6.43651532 1.89449855 8.3125 4.4375 C9.65991001 12.59622676 8.23699897 21.37789395 7.0625 29.5 C6.95349365 30.29672119 6.8444873 31.09344238 6.73217773 31.91430664 C6.60915283 32.67606201 6.48612793 33.43781738 6.359375 34.22265625 C6.20227051 35.22631226 6.20227051 35.22631226 6.04199219 36.25024414 C4.13180643 41.97760498 0.84712422 45.1680253 -4.32421875 48.03125 C-5.44594482 48.6617627 -6.5676709 49.29227539 -7.72338867 49.94189453 C-8.94045579 50.60734635 -10.1576632 51.27254164 -11.375 51.9375 C-12.63916747 52.64174016 -13.90258533 53.34732747 -15.1652832 54.05419922 C-17.7492536 55.49789189 -20.33741555 56.93357291 -22.9296875 58.36230469 C-26.36888586 60.25860508 -29.79575795 62.17612947 -33.21875 64.1015625 C-39.36767164 67.56005869 -45.52687079 70.99991362 -51.6875 74.4375 C-64.40197853 81.53649862 -77.10364892 88.6534896 -89.73535156 95.89892578 C-96.5281235 99.78951873 -103.3532782 103.62026207 -110.1875 107.4375 C-119.81634103 112.81651771 -129.41252162 118.24880367 -138.9765625 123.7421875 C-141.96051828 125.45508707 -144.95341477 127.14915262 -147.9609375 128.8203125 C-148.60780518 129.18205566 -149.25467285 129.54379883 -149.92114258 129.91650391 C-151.60245245 130.85512864 -153.28738581 131.78725506 -154.97265625 132.71875 C-157.72205663 134.45937758 -159.61633726 135.93075922 -161.6875 138.4375 C-162.30385686 141.22826762 -162.30385686 141.22826762 -162.26953125 144.3046875 C-162.31529297 145.43777344 -162.36105469 146.57085938 -162.40820312 147.73828125 C-162.46919352 150.11301352 -162.51875219 152.48806807 -162.55664062 154.86328125 C-162.98207759 164.59860507 -162.98207759 164.59860507 -166.484375 167.8203125 C-168.40161133 169.12939453 -168.40161133 169.12939453 -170.6875 170.4375 C-171.58428467 170.97358887 -172.48106934 171.50967773 -173.4050293 172.06201172 C-176.61376324 173.91663666 -179.86083988 175.68236858 -183.125 177.4375 C-185.55723351 178.76229084 -187.98581361 180.09370377 -190.4140625 181.42578125 C-191.02609024 181.76072098 -191.63811798 182.09566071 -192.26869202 182.44075012 C-198.24615639 185.72185532 -204.1273726 189.16017887 -210 192.625 C-218.39902757 197.56637503 -226.8759196 202.32456282 -235.44799805 206.95849609 C-242.27595282 210.65324746 -249.05457113 214.4287283 -255.8125 218.25 C-256.78268066 218.79624023 -257.75286133 219.34248047 -258.75244141 219.90527344 C-262.71613681 222.14535463 -266.66397572 224.39002933 -270.51953125 226.8125 C-271.54433594 227.451875 -272.56914063 228.09125 -273.625 228.75 C-274.43839844 229.28238281 -275.25179688 229.81476563 -276.08984375 230.36328125 C-283.19556344 233.30173676 -290.83484235 230.71706579 -297.9375 228.875 C-298.98873047 228.6054248 -300.03996094 228.33584961 -301.12304688 228.05810547 C-314.37676059 224.5727067 -327.26526699 220.33415699 -339.625 214.375 C-340.26953125 214.07094238 -340.9140625 213.76688477 -341.578125 213.45361328 C-346.17626967 211.11884871 -348.77841888 208.59333017 -351.6875 204.4375 C-352 201 -352 201 -350.6875 197.4375 C-345.0006992 191.00289657 -337.2792307 187.04779973 -329.875 182.9375 C-328.63750648 182.24132898 -327.40045404 181.54437338 -326.16381836 180.84667969 C-322.3457651 178.69694589 -318.51745291 176.5659399 -314.6875 174.4375 C-313.48660518 173.76896726 -312.28575778 173.10034933 -311.08496094 172.43164062 C-306.50899239 169.88448017 -301.93091828 167.3411545 -297.34887695 164.80493164 C-289.70827433 160.57406462 -282.11091222 156.27431051 -274.53735352 151.92480469 C-267.78008464 148.04869266 -260.98880831 144.23573406 -254.1875 140.4375 C-245.64127194 135.66419521 -237.12423003 130.84435091 -228.6340332 125.97216797 C-221.90853451 122.11903754 -215.14554171 118.33579967 -208.375 114.5625 C-200.02557176 109.90758294 -191.7407542 105.15705243 -183.5 100.3125 C-175.05021206 95.34862766 -166.52373688 90.56406416 -157.90332031 85.90356445 C-148.38959509 80.75527123 -138.983978 75.42159675 -129.57861328 70.07861328 C-124.78555043 67.3578762 -119.9862278 64.64822862 -115.1875 61.9375 C-113.27080302 60.8542203 -111.35413636 59.77088696 -109.4375 58.6875 C-105.60416667 56.52083333 -101.77083333 54.35416667 -97.9375 52.1875 C-96.98891113 51.65133057 -96.04032227 51.11516113 -95.06298828 50.56274414 C-93.14473038 49.47853266 -91.22643606 48.39438561 -89.30810547 47.31030273 C-84.54048522 44.61593007 -79.77348623 41.92047052 -75.0078125 39.22265625 C-63.99677154 32.99125771 -52.96971864 26.78976126 -41.92285156 20.62207031 C-36.82808443 17.77315971 -31.74568117 14.9056333 -26.6875 11.9921875 C-25.2636499 11.1724646 -25.2636499 11.1724646 -23.81103516 10.33618164 C-22.03783008 9.3128637 -20.2665222 8.28624785 -18.49755859 7.25561523 C-5.94881772 0.0106801 -5.94881772 0.0106801 0 0 Z " fill="#006FAA" transform="translate(1749.6875,731.5625)"/>
<ρath d="M0 0 C0.00097681 0.56268558 0.00195362 1.12537115 0.00296003 1.70510781 C0.06122255 35.04888225 0.1350121 68.39258187 0.22898628 101.73627419 C0.24025455 105.73922154 0.25139298 109.74216925 0.26245117 113.74511719 C0.26465486 114.54203747 0.26685854 115.33895775 0.269129 116.16002713 C0.30450863 129.06638365 0.329369 141.97274011 0.35034702 154.87912716 C0.37210377 168.12068028 0.40515299 181.36217043 0.44870156 194.60367 C0.47522046 202.77545383 0.49291407 210.94715918 0.49934604 219.11898391 C0.50521989 225.38344663 0.52679931 231.64776537 0.55427551 237.9121685 C0.56308454 240.48327712 0.56677243 243.05440905 0.56500816 245.62553215 C0.56336181 249.13126952 0.5800011 252.63645811 0.60127258 256.14212036 C0.59642501 257.16352651 0.59157743 258.18493265 0.58658296 259.2372905 C0.64669226 265.22507582 1.12545221 269.96084551 5.4453125 274.52807617 C12.55171566 279.08629669 20.87733713 280.48339026 29 282.3125 C30.55370075 282.67377676 32.10709002 283.03639584 33.66015625 283.40039062 C37.43635422 284.28499623 41.21736154 285.14166481 45 286 C45 290.95 45 295.9 45 301 C-2.85 301 -50.7 301 -100 301 C-100 296.05 -100 291.1 -100 286 C-98.98164062 285.77860352 -97.96328125 285.55720703 -96.9140625 285.32910156 C-93.10223678 284.49741188 -89.29364963 283.65162775 -85.48583984 282.80175781 C-83.84377423 282.4372844 -82.20087718 282.0765346 -80.55712891 281.71972656 C-78.18158234 281.20336611 -75.80944302 280.67326375 -73.4375 280.140625 C-72.71320801 279.98627991 -71.98891602 279.83193481 -71.24267578 279.6729126 C-62.51377879 277.75383237 -62.51377879 277.75383237 -55.77907985 272.32870108 C-53.14260307 267.14977379 -52.42783112 262.96051604 -52.49879456 257.18858337 C-52.49326016 256.33730805 -52.48772576 255.48603272 -52.48202366 254.60896116 C-52.4684825 251.77538143 -52.48335057 248.94269254 -52.49829102 246.10913086 C-52.49450549 244.07006966 -52.48900353 242.03101103 -52.48191833 239.99195862 C-52.46797788 234.46723539 -52.47912338 228.94282409 -52.49562955 223.41811824 C-52.50949798 217.63181623 -52.50301799 211.845532 -52.49949646 206.05921936 C-52.49679598 196.34403466 -52.51025682 186.62897363 -52.53344727 176.91381836 C-52.56006339 165.68590482 -52.56180107 154.45819793 -52.5500589 143.23026365 C-52.53927599 132.42231222 -52.54547176 121.61443545 -52.55961418 110.80648994 C-52.56536875 106.2097554 -52.56529546 101.61307559 -52.56054878 97.01634026 C-52.55577288 91.60310617 -52.5659063 86.19009808 -52.58750343 80.77690697 C-52.5930628 78.79156507 -52.59354441 76.80620141 -52.58855057 74.820858 C-52.58258404 72.10846642 -52.59512907 69.39676267 -52.61231995 66.68443298 C-52.6063099 65.90096259 -52.60029986 65.11749219 -52.59410769 64.31028026 C-52.67784627 57.03221491 -54.87269268 51.36164494 -60 46 C-68.88816804 40.39883275 -79.83243369 37.44011099 -89.68041992 33.98339844 C-91.26947144 33.42507324 -91.26947144 33.42507324 -92.890625 32.85546875 C-93.85000977 32.52184326 -94.80939453 32.18821777 -95.79785156 31.84448242 C-98 31 -98 31 -99 30 C-99.07179964 28.48071962 -99.08392007 26.95832518 -99.0625 25.4375 C-99.05347656 24.61121094 -99.04445313 23.78492188 -99.03515625 22.93359375 C-99.02355469 22.29550781 -99.01195312 21.65742187 -99 21 C-46.88242204 9.59710491 -46.88242204 9.59710491 -22.41717529 4.33712769 C-20.59951933 3.94616685 -18.78201382 3.55450584 -16.96466064 3.16213989 C-14.45995291 2.62164728 -11.95468756 2.08382695 -9.44921875 1.546875 C-8.71538467 1.38809372 -7.9815506 1.22931244 -7.22547913 1.0657196 C-2.22931573 0 -2.22931573 0 0 0 Z " fill="#006FA9" transform="translate(1015,1175)"/>
<ρath d="M0 0 C2 2 2 2 2.17871094 3.86743164 C1.6053548 10.44734164 -0.71971859 14.31573227 -4.75 19.4375 C-5.93804257 21.01130932 -7.1255264 22.58554055 -8.3125 24.16015625 C-9.22902344 25.35729248 -9.22902344 25.35729248 -10.1640625 26.57861328 C-13.10340818 30.45526627 -15.91911176 34.41890199 -18.75 38.375 C-20.34517169 40.58030648 -21.9436335 42.78319718 -23.54248047 44.98583984 C-24.88097452 46.83551755 -26.20879814 48.69239615 -27.53515625 50.55078125 C-28.28667969 51.58589844 -29.03820313 52.62101563 -29.8125 53.6875 C-30.43769531 54.55761719 -31.06289062 55.42773438 -31.70703125 56.32421875 C-37.96551797 63.62756356 -45.28170234 68.15770904 -53.6875 72.6875 C-55.93146296 73.91971124 -58.17494559 75.1527976 -60.41796875 76.38671875 C-61.53091309 76.99563965 -62.64385742 77.60456055 -63.79052734 78.23193359 C-68.39197747 80.76682647 -72.9473659 83.37875968 -77.5 86 C-86.19968356 90.99236088 -94.94617822 95.89798735 -103.703125 100.7890625 C-110.32294684 104.49029294 -116.92121191 108.22636122 -123.5 112 C-132.30639508 117.05051463 -141.14782037 122.03647883 -150.01953125 126.97143555 C-154.65149193 129.54977303 -159.269363 132.13889286 -163.82421875 134.8515625 C-164.54053467 135.27284424 -165.25685059 135.69412598 -165.99487305 136.12817383 C-167.26853512 136.88046102 -168.53530083 137.64464757 -169.79223633 138.42456055 C-174.34516781 141.0938346 -178.76937847 142.0530489 -184 142 C-188.67748417 140.41142047 -191.67292549 138.38564042 -194 134 C-196.02777123 121.1890341 -189.9679227 113.12521082 -182.875 103.1875 C-177.25661795 95.48238112 -171.33021393 88.12759306 -165 81 C-164.12988281 80.00742187 -163.25976562 79.01484375 -162.36328125 77.9921875 C-129.7616902 41.26752446 -53.10912664 -13.10484943 0 0 Z " fill="#006FAA" transform="translate(1492,475)"/>
<ρath d="M0 0 C3.5475148 1.68040175 5.29903879 2.93331991 7.4375 6.1875 C8.65131813 12.25659064 7.71851646 17.88563151 4.34375 23.140625 C-9.03079744 41.64726622 -25.90331799 59.22126434 -44.31298828 72.75732422 C-45.97101549 73.97864961 -47.60876498 75.22377916 -49.24609375 76.47265625 C-69.94607387 92.00917379 -93.43750035 103.14789168 -118 111 C-119.10698242 111.35771484 -119.10698242 111.35771484 -120.23632812 111.72265625 C-164.47190318 125.75933011 -164.47190318 125.75933011 -181.33984375 118.578125 C-184.20022412 116.88121799 -185.5466283 115.98748627 -187 113 C-187.52503121 108.34972354 -187.53019008 106.06038017 -185.4375 101.875 C-179.23806148 94.56284174 -171.84116462 90.43588041 -163.5 85.9375 C-162.29340776 85.27848976 -161.08736104 84.61847985 -159.88183594 83.95751953 C-158.04017864 82.94786881 -156.19825739 81.93874976 -154.35467529 80.93261719 C-148.62116732 77.8029188 -142.9309015 74.59914863 -137.25 71.375 C-135.85201172 70.58307251 -135.85201172 70.58307251 -134.42578125 69.77514648 C-132.55383445 68.71471199 -130.68208836 67.6539231 -128.81054688 66.59277344 C-124.04281921 63.89084021 -119.27121324 61.19577183 -114.5 58.5 C-108.77248238 55.26340397 -103.04538345 52.02607852 -97.3203125 48.78515625 C-87.35245703 43.1441201 -77.37275916 37.52538534 -67.375 31.9375 C-60.55007227 28.12196443 -53.73346656 24.29349757 -46.94726562 20.40942383 C-45.24447633 19.43503918 -43.54006766 18.46347856 -41.83398438 17.49487305 C-37.17382363 14.84433977 -32.55667051 12.13721981 -27.96875 9.36328125 C-26.95248535 8.7607251 -25.9362207 8.15816895 -24.88916016 7.53735352 C-22.93974814 6.38138029 -21.00097765 5.20718532 -19.07568359 4.01147461 C-12.69622524 0.26740995 -7.40132061 -1.14505248 0 0 Z " fill="#006FAA" transform="translate(1706,846)"/>
<ρath d="M0 0 C7.50685516 6.16854287 12.74439136 12.55424698 14.75 22.25 C15.65168927 31.55506139 15.37655691 39.88043003 10.75 48.25 C10.1725 49.301875 9.595 50.35375 9 51.4375 C2.29149282 59.82313397 -6.49816505 65.59846422 -17.25 67.25 C-28.78051144 68.17102395 -38.27075087 65.64372406 -47.25 58.25 C-54.71919731 51.4441417 -58.64590189 44.4860544 -59.625 34.37890625 C-60.15369237 22.79736845 -57.7886682 13.24798516 -50.2265625 4.25390625 C-36.81418085 -9.34402218 -15.59138518 -10.93189076 0 0 Z " fill="#006FAA" transform="translate(1008.25,1037.75)"/>
</svg>
